# xmcd
#
# Track frame offsets:
#	150
#	34965
#	67075
#	102185
#	132325
#	156235
#
# Disc length: 2412 seconds
#
# Revision: 2
# Processed by: cddbd v1.5.2PL0 Copyright (c) Steve Scherf et al.
# Submitted via: EZCDAudioConverter 1.5.2.1
#
DISCID=52096a06
DTITLE=江蕙 - 初登場Live CD2
DYEAR=2009
DGENRE=Pop-Folk
TTITLE0=夜色+苦酒的探戈
TTITLE1=我愛過+你不識我
TTITLE2=再會啦心愛的無緣的人+情網+SUKIYAKI
TTITLE3=風吹風吹+愛我三分鐘
TTITLE4=傷心酒店
TTITLE5=家後
EXTD=
EXTT0=
EXTT1=
EXTT2=
EXTT3=
EXTT4=
EXTT5=
PLAYORDER=
